<?xml version="1.0" encoding="utf-8"?>
<!-- Generator: Adobe Illustrator 21.1.0, SVG Export Plug-In . SVG Version: 6.00 Build 0)  -->
<svg version="1.1" id="Layer_1" xmlns="http://www.w3.org/2000/svg" xmlns:xlink="http://www.w3.org/1999/xlink" x="0px" y="0px"
	 viewBox="0 0 425.4 425.4" style="enable-background:new 0 0 425.4 425.4;" xml:space="preserve">
<style type="text/css">
	.st0{fill:url(#SVGID_1_);}
	.st1{fill:#FFFFFF;}
</style>
<title>Artboard 28</title>
<linearGradient id="SVGID_1_" gradientUnits="userSpaceOnUse" x1="2.3622" y1="212.7" x2="423.0378" y2="212.7">
	<stop  offset="5.376340e-03" style="stop-color:#E53FF7"/>
	<stop  offset="1" style="stop-color:#470989"/>
</linearGradient>
<path class="st0" d="M347.8,423H77.6C36,423,2.4,389.4,2.4,347.8V77.6C2.4,36,36,2.4,77.6,2.4h270.2C389.4,2.4,423,36,423,77.6
	v270.2C423,389.4,389.4,423,347.8,423z"/>
<g>
	<path class="st1" d="M377.4,240c-19.3-38.2-86-79.7-149.1-92.6c-63.1-12.9-105.3,12.2-94.3,56c5.2,20.6,22.7,40.8,47.3,57
		l-2.2-17.3l14.3-1.9c-10.9-10-18.6-21.1-21.8-32.2c-10-35.2,24.2-55.5,76.5-45.4c52.3,10.1,107.3,43.8,122.9,75.3
		c15.6,31.5-18.6,51.8-76.5,45.4c-25.6-2.8-50.6-11-71.4-22.3l20.6-16.7l-52.6,6.9l6.8,52.7l12.7-28.4c22,9.9,46.9,17,72.5,19.6
		C354.5,303.3,396.7,278.2,377.4,240z"/>
	<path class="st1" d="M291.6,268.1c-5.4-60.2-60.8-135.5-123.6-168.2c-62.9-32.7-118.5-5.3-124.2,61.2c-2.1,24.1,3.9,49.3,15.8,72.9
		l7.6-21.5l21.6,7.7c-5.2-14.2-7.7-28.7-6.8-42.6c3.3-53.7,48.4-75.9,100.7-49.5c52.3,26.3,98.1,87.7,102.3,137.2
		c4.2,49.4-40.9,71.6-100.7,49.5c-27.9-10.3-52.7-29.2-71-51.8l36.2-7.7l-74.2-26.5l-26.4,74.3l37.1-30
		c21.5,24.7,49.7,44.9,81.4,56.3C241.4,355.7,297,328.3,291.6,268.1z"/>
	<path class="st1" d="M294.5,284.4c-9.5-1-18.9-2.8-28-5.3v14.5c5.5,1,11.1,1.8,16.7,2.4c7.9,0.8,15.4,1.2,22.6,1.2v-12
		C302.1,285.1,298.4,284.8,294.5,284.4z"/>
</g>
</svg>
